<svg xmlns="http://www.w3.org/2000/svg" width="100.028" height="100.841" viewBox="0 0 100.028 100.841"><defs><style>.a{fill:#ed9296;}</style></defs><g transform="translate(0)"><path class="a" d="M90.6,33.372l11.068-11.157a1.477,1.477,0,0,0-.345-2.339L64.983.18a1.477,1.477,0,0,0-1.748.254L52.079,11.59,40.924.435A1.464,1.464,0,0,0,39.177.181L27.506,6.505a1.478,1.478,0,0,0,.705,2.777,1.486,1.486,0,0,0,.7-.179l10.7-5.8L49.633,13.322,15.913,31.548,5.979,21.533l17.739-9.615a1.473,1.473,0,0,0,.595-2,1.477,1.477,0,0,0-1.3-.774,1.492,1.492,0,0,0-.7.179L2.84,19.876A1.475,1.475,0,0,0,2.5,22.214L13.561,33.372,2.494,44.53a1.477,1.477,0,0,0,.345,2.339l11.328,6.14V79.665a1.445,1.445,0,0,0,.007.152c0,.021.006.042.009.064s.007.052.012.077.015.063.023.095c0,.014.007.029.011.043.01.032.021.063.033.094.005.014.009.028.015.041s.025.055.038.081.015.033.024.05.025.043.038.064.024.041.037.061.023.032.035.048.033.046.051.069.021.024.032.036.042.048.064.071l.036.034c.022.021.045.042.068.062s.047.036.071.054l.042.032q.064.043.132.08L51.37,100.66a1.483,1.483,0,0,0,.163.076l.037.013c.041.015.083.029.125.04l.046.012c.041.01.083.017.126.023l.043.007a1.376,1.376,0,0,0,.338,0l.044-.007c.043-.006.084-.014.126-.023l.046-.012q.064-.017.125-.04l.037-.013a1.5,1.5,0,0,0,.163-.076L89.213,80.971q.068-.037.132-.08l.042-.032c.024-.018.049-.035.072-.054s.046-.041.068-.062.025-.022.036-.034.043-.047.064-.071.022-.023.032-.036.035-.046.051-.069.024-.032.035-.048.025-.04.037-.061.026-.042.038-.064.016-.033.024-.05.026-.053.038-.081.01-.028.015-.041c.012-.031.023-.062.033-.094,0-.014.007-.029.011-.043.008-.031.017-.062.023-.095s.008-.051.012-.077.007-.042.009-.064a1.45,1.45,0,0,0,.007-.152V53.008l11.327-6.139a1.478,1.478,0,0,0,.347-2.34ZM64.544,3.3l33.636,18.23L88.245,31.548,54.526,13.321Zm-48.2,47.523L5.98,45.211,15.914,35.2l33.72,18.227L39.615,63.441,16.354,50.833ZM50.6,96.887l-33.482-18.1V54.609L39.177,66.564a1.477,1.477,0,0,0,1.748-.254L50.6,56.632Zm1.477-45.5L18.753,33.372,52.08,15.358,85.407,33.372Zm35.744-.563-.024.013-7.359,3.989a1.479,1.479,0,0,0-.6,2,1.481,1.481,0,0,0,2,.595l5.191-2.814V78.789l-33.482,18.1V56.631l9.678,9.678a1.466,1.466,0,0,0,1.044.433,1.492,1.492,0,0,0,.7-.179l11.671-6.326a1.477,1.477,0,1,0-1.408-2.6l-10.7,5.8L54.526,53.423,88.246,35.2,98.18,45.21Z" transform="translate(-2.066)"/></g></svg>