<svg xmlns="http://www.w3.org/2000/svg" width="219.545" height="115.034" viewBox="0 0 219.545 115.034">
  <g id="Grupo_47" data-name="Grupo 47" transform="translate(-805 -76)">
    <g id="Grupo_1" data-name="Grupo 1" transform="translate(805 76)">
      <path id="Caminho_1" data-name="Caminho 1" d="M224.74,294.278H348.5V194.392H224.74a6.381,6.381,0,0,0-6.362,6.363v87.161a6.381,6.381,0,0,0,6.362,6.362" transform="translate(-218.378 -192.938)" fill-rule="evenodd"/>
      <path id="Caminho_2" data-name="Caminho 2" d="M542.207,294.278H458.48V194.392H547.9v94.19a5.713,5.713,0,0,1-5.7,5.7" transform="translate(-328.357 -192.938)" fill="#e67a80" fill-rule="evenodd"/>
      <path id="Caminho_3" data-name="Caminho 3" d="M338.236,270.093V246.616a6.637,6.637,0,0,0-.443-2.381,5.861,5.861,0,0,0-1.495-2.159,7.636,7.636,0,0,0-2.879-1.606,14.743,14.743,0,0,0-4.6-.609,15.657,15.657,0,0,0-4.485.553,7.129,7.129,0,0,0-2.879,1.551,6.139,6.139,0,0,0-1.55,2.326,10.036,10.036,0,0,0-.609,2.769v23.588a6.689,6.689,0,0,0,.83,3.488,9.648,9.648,0,0,0,1.827,2.27,10.249,10.249,0,0,0,2.547,1.551q1.771.664,3.765,1.329,1.662.554,3.6,1.274t3.6,1.274a5.475,5.475,0,0,1,1.716.775,2.56,2.56,0,0,1,1.052,1.772V270.093Zm9.413,42.635h-9.413V296.56a5.139,5.139,0,0,0-.5-2.326,8.646,8.646,0,0,0-1.162-1.772,5.361,5.361,0,0,0-1.329-1.163q-.665-.387-1.108-.609-.443-.111-2.215-.775t-4.152-1.495l-4.928-1.717q-2.547-.885-4.54-1.55a11.72,11.72,0,0,1-6.257-4.873,14.06,14.06,0,0,1-2.16-7.641v-2.547H310V247.613h-.111v-2.658a12.983,12.983,0,0,1,1.052-5.2,10.907,10.907,0,0,1,3.377-4.263,17.391,17.391,0,0,1,5.925-2.879,30.822,30.822,0,0,1,8.582-1.052q9.635,0,14.175,3.82a12.232,12.232,0,0,1,4.651,9.468Z" transform="translate(-260.293 -209.962)" fill="#fff"/>
      <path id="Caminho_4" data-name="Caminho 4" d="M422.007,276.285v1.993a19.057,19.057,0,0,1-.443,3.544,9.934,9.934,0,0,1-2.326,4.429,15,15,0,0,1-5.648,3.821q-3.765,1.605-10.41,1.605t-10.41-1.605a15,15,0,0,1-5.648-3.821,9.916,9.916,0,0,1-2.326-4.485,19.682,19.682,0,0,1-.443-3.488V232.986h9.3V275.4h.111v1.107a9.688,9.688,0,0,0,.277,2.1,5.082,5.082,0,0,0,1.218,2.27,7.172,7.172,0,0,0,2.768,1.772,13.772,13.772,0,0,0,4.928.72,14.644,14.644,0,0,0,5.094-.72,8.137,8.137,0,0,0,2.879-1.716,4.993,4.993,0,0,0,1.329-2.16,7.884,7.884,0,0,0,.332-2.159V275.4h.111V232.986h9.3Z" transform="translate(-294.405 -210.617)" fill="#fff"/>
      <path id="Caminho_5" data-name="Caminho 5" d="M490.926,260.9a2.422,2.422,0,0,1-1.107,1.661,6.611,6.611,0,0,1-1.661.775q-1.661.554-3.6,1.274t-3.6,1.274q-1.993.664-3.765,1.329a10.245,10.245,0,0,0-2.547,1.551,9.646,9.646,0,0,0-1.827,2.27,6.689,6.689,0,0,0-.83,3.488q0,4.209,1.993,6.257t7.419,2.049q5.538,0,7.53-2.16a8.734,8.734,0,0,0,1.993-6.146ZM481.4,231.556q9.745,0,14.286,3.82a12.007,12.007,0,0,1,4.54,9.579v32.779a15.2,15.2,0,0,1-.72,4.374,10.024,10.024,0,0,1-2.823,4.375,16.447,16.447,0,0,1-5.759,3.322,34.791,34.791,0,0,1-19.047,0,16.444,16.444,0,0,1-5.758-3.322,10.031,10.031,0,0,1-2.824-4.375,15.218,15.218,0,0,1-.72-4.374v-5.2a14.055,14.055,0,0,1,2.16-7.641,11.738,11.738,0,0,1,6.146-4.873q1.993-.664,4.54-1.55l4.928-1.717q2.381-.83,4.153-1.495t2.214-.776q.444-.221,1.163-.609a4.94,4.94,0,0,0,1.384-1.163,8.659,8.659,0,0,0,1.163-1.772,5.136,5.136,0,0,0,.5-2.325v-2.1a6.355,6.355,0,0,0-.443-2.27,5.62,5.62,0,0,0-1.551-2.159A8.208,8.208,0,0,0,486,240.47a14.74,14.74,0,0,0-4.6-.609q-5.537,0-7.475,2.27a8.158,8.158,0,0,0-1.938,5.481h-9.413v-2.658a12.991,12.991,0,0,1,1.052-5.2,10.912,10.912,0,0,1,3.377-4.263,17.433,17.433,0,0,1,5.87-2.879A30.222,30.222,0,0,1,481.4,231.556Z" transform="translate(-330.234 -209.962)" fill="#fff"/>
      <path id="Caminho_6" data-name="Caminho 6" d="M555.574,264.688a14.742,14.742,0,0,0,4.6-.609,7.635,7.635,0,0,0,2.879-1.606,5.753,5.753,0,0,0,1.5-2.215,6.811,6.811,0,0,0,.443-2.325V220.17a2.562,2.562,0,0,1-1.052,1.772,5.484,5.484,0,0,1-1.717.775q-1.661.554-3.6,1.218t-3.6,1.218q-1.993.664-3.765,1.329a8.878,8.878,0,0,0-2.547,1.661,9.649,9.649,0,0,0-1.827,2.27,6.683,6.683,0,0,0-.831,3.488v23.477a10.033,10.033,0,0,0,.609,2.768,6.136,6.136,0,0,0,1.55,2.325,7.635,7.635,0,0,0,2.879,1.606,14.314,14.314,0,0,0,4.485.609m18.826-5.094a12.338,12.338,0,0,1-4.652,9.579q-4.54,3.821-14.175,3.821a30.822,30.822,0,0,1-8.582-1.052,17.394,17.394,0,0,1-5.925-2.879,10.9,10.9,0,0,1-3.377-4.263,12.989,12.989,0,0,1-1.052-5.2v-2.658h.11v-22.48h-.11v-2.547a14.06,14.06,0,0,1,2.159-7.641,11.723,11.723,0,0,1,6.257-4.873q1.993-.664,4.54-1.551t4.873-1.716q2.326-.831,4.1-1.495t2.215-.776q.443-.221,1.163-.609a4.945,4.945,0,0,0,1.384-1.162,8.666,8.666,0,0,0,1.162-1.772,5.139,5.139,0,0,0,.5-2.326V191.71H574.4Z" transform="translate(-364.158 -191.71)" fill="#fff"/>
      <path id="Caminho_7" data-name="Caminho 7" d="M264.065,247.613a8.158,8.158,0,0,0-1.938-5.481q-1.938-2.271-7.475-2.27a14.742,14.742,0,0,0-4.6.609,8.208,8.208,0,0,0-2.935,1.606,5.62,5.62,0,0,0-1.551,2.159,6.366,6.366,0,0,0-.443,2.27v2.1a5.136,5.136,0,0,0,.5,2.325,8.655,8.655,0,0,0,1.162,1.772,4.94,4.94,0,0,0,1.384,1.163q.72.388,1.163.609.443.111,2.214.776t4.153,1.495l4.928,1.717q2.547.885,4.54,1.55a11.742,11.742,0,0,1,6.146,4.873,14.059,14.059,0,0,1,2.159,7.641v5.2a15.2,15.2,0,0,1-.72,4.374,10.022,10.022,0,0,1-2.824,4.375,16.439,16.439,0,0,1-5.758,3.322,34.792,34.792,0,0,1-19.047,0,16.445,16.445,0,0,1-5.758-3.322,10.022,10.022,0,0,1-2.824-4.375,15.218,15.218,0,0,1-.72-4.374v-3.212h9.3a8.734,8.734,0,0,0,1.993,6.146q1.993,2.159,7.53,2.16,5.426,0,7.42-2.049t1.993-6.257a7.068,7.068,0,0,0-.776-3.488,8.654,8.654,0,0,0-1.772-2.27,9.642,9.642,0,0,0-2.658-1.551q-3.322-1.218-6.2-2.215-2.547-.885-4.928-1.716t-3.489-1.162a17.218,17.218,0,0,1-2.547-1.329,13.266,13.266,0,0,1-2.769-2.326,12.285,12.285,0,0,1-2.215-3.488,11.77,11.77,0,0,1-.886-4.707v-5.315a12.005,12.005,0,0,1,4.54-9.579q4.54-3.82,14.285-3.82a30.226,30.226,0,0,1,8.527,1.052,17.435,17.435,0,0,1,5.869,2.879,10.912,10.912,0,0,1,3.377,4.263,12.992,12.992,0,0,1,1.052,5.2v2.658Z" transform="translate(-226.37 -209.962)" fill="#fff"/>
      <path id="Caminho_8" data-name="Caminho 8" d="M219.075,394.715H348.5V383.764H219.075a.7.7,0,0,0-.7.7v9.556a.7.7,0,0,0,.7.7" transform="translate(-218.378 -279.681)" fill-rule="evenodd"/>
      <path id="Caminho_9" data-name="Caminho 9" d="M547.2,394.715H458.48V383.764H547.9v10.253a.7.7,0,0,1-.7.7" transform="translate(-328.357 -279.681)" fill="#e67a80" fill-rule="evenodd"/>
      <path id="Caminho_10" data-name="Caminho 10" d="M435.928,387.8c-.837.008-1.211.561-1.211,1.414,0,1.585,2.056,1.61,2.056,2.975,0,.61-.236,1.048-.862,1.048s-.862-.438-.862-1.048v-.317h-.357v.293c0,.821.357,1.422,1.227,1.422s1.228-.6,1.228-1.422c0-1.568-2.057-1.593-2.057-2.975,0-.6.228-1.048.845-1.048s.845.455.845,1.056v.146h.358v-.122C437.139,388.4,436.79,387.8,435.928,387.8Zm-9.1.471.837,3.682h-1.658Zm.894,4.007.285,1.259h.374l-1.268-5.7h-.545l-1.243,5.7h.341l.285-1.259Zm-9.131-4.429v5.689h.374v-5.689Zm-8.554,2.8v-2.463h.8c.618,0,.853.365.853.975v.536c0,.764-.39.951-1.056.951Zm-.373-2.8v5.689h.373V391h.593c.65,0,1.064.211,1.064.967v.894a1.332,1.332,0,0,0,.122.682h.391a1.271,1.271,0,0,1-.139-.682v-.886a1.245,1.245,0,0,1,0-2.341v-.5c0-.8-.35-1.284-1.219-1.284Zm-7.669.293c.634,0,.886.455.886,1.073v2.958c0,.618-.252,1.072-.886,1.072s-.869-.455-.869-1.072v-2.958C401.127,388.6,401.37,388.144,402,388.144Zm0-.341c-.861,0-1.243.61-1.243,1.438v2.91c0,.829.382,1.438,1.243,1.438.878,0,1.26-.609,1.26-1.438v-2.91C403.256,388.413,402.874,387.8,402,387.8Zm.268-1.1-.577.772h.284l.683-.772Zm-8.9,6.843v-5.347h1.162v-.341h-2.69v.341h1.154v5.347Zm-8.944-5.738c-.837.008-1.211.561-1.211,1.414,0,1.585,2.056,1.61,2.056,2.975,0,.61-.235,1.048-.861,1.048s-.862-.438-.862-1.048v-.317h-.357v.293c0,.821.357,1.422,1.227,1.422s1.227-.6,1.227-1.422c0-1.568-2.056-1.593-2.056-2.975,0-.6.228-1.048.845-1.048s.845.455.845,1.056v.146h.358v-.122C385.628,388.4,385.279,387.8,384.417,387.8Zm-8,.049v5.689h.373v-5.689Zm-6.823,3.015v2.674h.382v-5.689h-.382v2.674h-1.772v-2.674h-.374v5.689h.374v-2.674ZM343.458,387.8c-.837.008-1.211.561-1.211,1.414,0,1.585,2.056,1.61,2.056,2.975,0,.61-.236,1.048-.861,1.048s-.862-.438-.862-1.048v-.317h-.357v.293c0,.821.357,1.422,1.227,1.422s1.227-.6,1.227-1.422c0-1.568-2.056-1.593-2.056-2.975,0-.6.228-1.048.845-1.048s.845.455.845,1.056v.146h.358v-.122C344.67,388.4,344.319,387.8,343.458,387.8Zm-9.1.471.837,3.682h-1.658Zm.894,4.007.284,1.259h.374l-1.268-5.7H334.1l-1.243,5.7h.341l.284-1.259Zm-11.513-4.429,1.251,5.689h.553l1.236-5.689h-.35l-1.154,5.258-1.154-5.258Zm-8.448,1.365c0-.617.244-1.073.87-1.073s.886.455.886,1.073v2.958c0,.618-.251,1.072-.886,1.072s-.87-.455-.87-1.072Zm-.374,2.934c0,.829.382,1.438,1.244,1.438.877,0,1.26-.609,1.26-1.438v-2.91c0-.829-.382-1.438-1.26-1.438-.862,0-1.244.61-1.244,1.438Zm-8.6-3.682,1.78,5.072h.414v-5.689h-.341v4.8l-1.707-4.8h-.488v5.689h.341Zm-26.516.748c0-.617.244-1.073.869-1.073s.886.455.886,1.073v2.958c0,.618-.251,1.072-.886,1.072s-.869-.455-.869-1.072Zm-.374,2.934c0,.829.382,1.438,1.243,1.438.878,0,1.26-.609,1.26-1.438v-2.91c0-.829-.382-1.438-1.26-1.438-.861,0-1.243.61-1.243,1.438ZM270.9,393.2v-5.006h.87c.626,0,.894.431.894,1.056v2.893c0,.626-.26,1.057-.894,1.057Zm-.373-5.348v5.689h1.251c.877,0,1.26-.577,1.26-1.414v-2.861c0-.837-.382-1.414-1.26-1.414Zm-8.627.617,1.78,5.072h.414v-5.689h-.341v4.8l-1.706-4.8h-.488v5.689h.341Zm-8.253-.2.837,3.682h-1.658Zm.894,4.007.285,1.259h.374l-1.268-5.7h-.544l-1.244,5.7h.341l.285-1.259Zm-9.131-4.429v5.689h.374v-5.689Zm-8.554,2.8v-2.463h.8c.618,0,.853.365.853.975v.536c0,.764-.39.951-1.056.951Zm-.373-2.8v5.689h.373V391h.593c.65,0,1.064.211,1.064.967v.894a1.326,1.326,0,0,0,.122.682h.39a1.27,1.27,0,0,1-.139-.682v-.886a1.245,1.245,0,0,1,0-2.341v-.5c0-.8-.35-1.284-1.219-1.284Zm-7.628-.049c-.87,0-1.227.618-1.227,1.438v2.91c0,.82.357,1.438,1.227,1.438s1.228-.618,1.228-1.438v-.65h-.358v.675c0,.61-.236,1.064-.862,1.064s-.862-.455-.862-1.064v-2.958c0-.609.236-1.073.862-1.073s.862.463.862,1.073v.5h.358v-.471C230.084,388.421,229.727,387.8,228.857,387.8Z" transform="translate(-222.616 -281.025)" fill="#fff"/>
    </g>
  </g>
</svg>
