<svg xmlns="http://www.w3.org/2000/svg" width="468.661" height="474.706" viewBox="0 0 468.661 474.706">
  <g id="Grupo_5" data-name="Grupo 5" transform="translate(1075.918 -235.947)">
    <g id="Grupo_4" data-name="Grupo 4" transform="translate(-1074.889 236.984)">
      <path id="Caminho_14" data-name="Caminho 14" d="M-933.21,248.7a22.043,22.043,0,0,1,7.378-.881l.616,1.72,1.234,3.438-1.473.53a.659.659,0,0,1-.874-.31c-.074-.111-.27-.561-.619-1.337s-.575-1.215-.619-1.338c-5.134.179-8.354,1.924-9.806,5.217a9.576,9.576,0,0,0,.039,7.16,9.644,9.644,0,0,0,4.5,5.593,7.47,7.47,0,0,0,6.25.322A9.415,9.415,0,0,0-923.8,267.4a8.589,8.589,0,0,0,2.129-2.567c.129-.219.219-.355.4-.422a.74.74,0,0,1,.558.008l1.63.872a10.513,10.513,0,0,1-6.731,6.158,10.48,10.48,0,0,1-8.738-.4,12.3,12.3,0,0,1-5.794-7.07,11.864,11.864,0,0,1,.162-9.207,11.6,11.6,0,0,1,7.042-6.062Z" transform="translate(1091.561 -235.634)" fill="#747474" stroke="#747474" stroke-width="2"/>
      <path id="Caminho_15" data-name="Caminho 15" d="M-891.3,250.573a13.317,13.317,0,0,1,.127,4.863,10.92,10.92,0,0,1-1.571,4.167,10.452,10.452,0,0,1-3.079,3.1,12.311,12.311,0,0,1-4.431,1.805,12.311,12.311,0,0,1-4.787.013,10.592,10.592,0,0,1-4.058-1.693,10.921,10.921,0,0,1-3.037-3.258A13.5,13.5,0,0,1-913.9,255a13.527,13.527,0,0,1-.1-4.9,10.913,10.913,0,0,1,1.571-4.167,10.666,10.666,0,0,1,3.105-3.14,12.292,12.292,0,0,1,4.438-1.774,12.3,12.3,0,0,1,4.78-.045,10.576,10.576,0,0,1,4.058,1.694,10.923,10.923,0,0,1,3.037,3.258,13.542,13.542,0,0,1,1.735,4.579Zm-3.2.632a11.99,11.99,0,0,0-1.328-3.7,8.12,8.12,0,0,0-2.162-2.533,7.05,7.05,0,0,0-2.908-1.254,9.172,9.172,0,0,0-3.512.061,8.855,8.855,0,0,0-3.209,1.265,7.059,7.059,0,0,0-2.214,2.265,8.238,8.238,0,0,0-1.1,3.177,11.981,11.981,0,0,0,.176,3.922,11.773,11.773,0,0,0,1.322,3.663,8.081,8.081,0,0,0,2.22,2.489,7.122,7.122,0,0,0,2.914,1.287,9.034,9.034,0,0,0,3.486-.022,9.049,9.049,0,0,0,3.235-1.3,7.113,7.113,0,0,0,2.207-2.3,8.015,8.015,0,0,0,1.078-3.139,11.785,11.785,0,0,0-.17-3.89Z" transform="translate(1094.929 -236.513)" fill="#747474" stroke="#747474" stroke-width="2"/>
      <path id="Caminho_16" data-name="Caminho 16" d="M-864.085,255.363a12.7,12.7,0,0,1-.127-1.627l-.536-14.144c-1.278-.147-1.969-.285-2.165-.309a.572.572,0,0,1-.544-.567l-.054-1.434,2.672-.1,2.77-.106,2.379-.09.054,1.434a.57.57,0,0,1-.5.606l-1.843.462.794,20.955-1.6.061a1.331,1.331,0,0,1-1.129-.513L-878.1,242.9a12.17,12.17,0,0,1,.123,1.5l.541,14.275c1.311.145,2.035.281,2.2.307a.52.52,0,0,1,.478.57l.053,1.4-7.756.295-.053-1.4a.544.544,0,0,1,.467-.605l1.842-.461-.7-18.577q-1.576-.235-1.873-.321a.577.577,0,0,1-.513-.6l-.053-1.4,3.977-.151a1.517,1.517,0,0,1,.622.074,2.465,2.465,0,0,1,.505.4l14.16,17.087Z" transform="translate(1098.773 -236.984)" fill="#747474" stroke="#747474" stroke-width="2"/>
      <path id="Caminho_17" data-name="Caminho 17" d="M-828.5,242.45l-2.263,18.482q1.518.481,1.894.626a.524.524,0,0,1,.317.63l-.17,1.391-7.833-.959.171-1.391a.6.6,0,0,1,.593-.552l1.856-.134,1-8.189-12.494-1.53-1,8.189q2.271.771,2.211,1.256l-.17,1.391-7.8-.955.171-1.392a.577.577,0,0,1,.561-.556l1.888-.129,2.263-18.482q-1.516-.481-1.894-.625a.526.526,0,0,1-.317-.631l.166-1.359,7.8.955-.166,1.36c-.039.323-.16.506-.395.543s-.9.087-2.021.146l-.98,7.994,12.493,1.531.98-8q-1.518-.481-1.9-.625a.524.524,0,0,1-.316-.631l.166-1.359,7.832.959-.166,1.359a.575.575,0,0,1-.561.556Z" transform="translate(1102.659 -236.916)" fill="#747474" stroke="#747474" stroke-width="2"/>
      <path id="Caminho_18" data-name="Caminho 18" d="M-799.267,247.3l-1.508,5.439-1.509-.418a.605.605,0,0,1-.512-.719c.026-.094.159-.938.451-2.481l-8.425-2.337-2.075,7.484,8.3,2.3-.662,2.389-8.3-2.3-2.137,7.7,8.426,2.336c.51-1.348.791-2.117.817-2.211.168-.36.454-.416.831-.312l1.509.418-1.447,5.219-16.16-4.481.366-1.32a.576.576,0,0,1,.638-.466l1.887.151,4.979-17.952q-1.432-.7-1.688-.874a.577.577,0,0,1-.306-.729l.367-1.32Z" transform="translate(1106.464 -236.256)" fill="#747474" stroke="#747474" stroke-width="2"/>
      <path id="Caminho_19" data-name="Caminho 19" d="M-778.153,255a22.037,22.037,0,0,1,5.989,4.4l-.723,1.677-1.448,3.354-1.437-.62a.657.657,0,0,1-.426-.823c.021-.133.186-.595.461-1.4s.411-1.28.462-1.4c-3.871-3.375-7.415-4.3-10.725-2.887a9.575,9.575,0,0,0-4.861,5.256,9.638,9.638,0,0,0-.532,7.16,7.466,7.466,0,0,0,4.344,4.5,9.436,9.436,0,0,0,3,.868,8.563,8.563,0,0,0,3.308-.421.8.8,0,0,1,.581-.033.746.746,0,0,1,.4.387l.595,1.749a10.514,10.514,0,0,1-9.122-.1,10.475,10.475,0,0,1-6.108-6.259,12.3,12.3,0,0,1,.6-9.121,11.867,11.867,0,0,1,6.406-6.613,11.6,11.6,0,0,1,9.284.382Z" transform="translate(1109.788 -234.878)" fill="#747474" stroke="#747474" stroke-width="2"/>
      <path id="Caminho_20" data-name="Caminho 20" d="M-758.479,268.208l-9.3,16.139c.806.691,1.335,1.146,1.528,1.333a.524.524,0,0,1,.046.7l-.7,1.215-6.811-3.924.7-1.216a.553.553,0,0,1,.705-.309l1.819.634,9.3-16.139q-1.21-1.036-1.5-1.316a.528.528,0,0,1-.046-.705l.685-1.187,6.811,3.925-.684,1.187a.577.577,0,0,1-.733.294Z" transform="translate(1112.444 -233.685)" fill="#747474" stroke="#747474" stroke-width="2"/>
      <path id="Caminho_21" data-name="Caminho 21" d="M-743.573,280.24a13.65,13.65,0,0,1-.885,1.3l-9.1,11.679c.805.876,1.317,1.441,1.508,1.672a.52.52,0,0,1-.026.723l-.883,1.131-6.148-4.79.882-1.133a.57.57,0,0,1,.773-.142l1.68.814,11.426-14.664c-.7-.8-1.085-1.26-1.2-1.431a.573.573,0,0,1-.051-.785l.882-1.131,3.7,2.886a1.711,1.711,0,0,1,.454.479.863.863,0,0,1,.074.594l-2.506,16.323a11.676,11.676,0,0,1-.451,1.8,14.371,14.371,0,0,1,1.654-.9l15.064-6.494a.906.906,0,0,1,.622-.054,1.708,1.708,0,0,1,.574.323l3.7,2.887-.882,1.131a.572.572,0,0,1-.773.143l-1.706-.835-11.426,14.664q1.054,1.193,1.226,1.452a.57.57,0,0,1,.051.783l-.882,1.133-6.175-4.811.882-1.131a.545.545,0,0,1,.747-.163c.3.15.944.488,1.965,1.035l9.08-11.653a12.78,12.78,0,0,1,.994-1.17l-15.309,6.594a1.217,1.217,0,0,1-1.335-.09l-.361-.28a1.311,1.311,0,0,1-.465-1.314l2.569-16.561Z" transform="translate(1114.265 -232.433)" fill="#747474" stroke="#747474" stroke-width="2"/>
      <path id="Caminho_22" data-name="Caminho 22" d="M-703.3,310.815l-4.13,3.845-1.066-1.146a.6.6,0,0,1-.061-.88c.071-.066.625-.715,1.682-1.878l-5.956-6.4-5.681,5.289,5.866,6.3-1.814,1.689-5.868-6.3-5.848,5.446,5.956,6.4c1.139-.882,1.78-1.39,1.852-1.456a.61.61,0,0,1,.87.17l1.067,1.145-3.963,3.69-11.423-12.27,1-.933a.577.577,0,0,1,.787-.064l1.528,1.116,13.631-12.69q-.852-1.346-.981-1.627a.577.577,0,0,1,.12-.781l1-.933Z" transform="translate(1117.669 -229.308)" fill="#747474" stroke="#747474" stroke-width="2"/>
      <path id="Caminho_23" data-name="Caminho 23" d="M-700.352,345.195a12.521,12.521,0,0,1,1.306-.98l11.647-8.037c-.56-1.157-.815-1.813-.9-1.993a.569.569,0,0,1,.187-.763l1.18-.815,1.519,2.2,1.573,2.281,1.352,1.96-1.181.814a.571.571,0,0,1-.78-.1l-1.378-1.308-17.258,11.907-.907-1.316a1.33,1.33,0,0,1-.174-1.227l6.809-21.139a12.262,12.262,0,0,1-1.2.906l-11.756,8.11c.579,1.184.853,1.868.919,2.02a.522.522,0,0,1-.224.71l-1.154.8-4.408-6.388,1.154-.8a.544.544,0,0,1,.761.07l1.377,1.307,15.3-10.554q-.646-1.456-.733-1.752a.576.576,0,0,1,.233-.755l1.154-.8,2.259,3.275a1.537,1.537,0,0,1,.271.566,2.459,2.459,0,0,1-.071.642l-6.828,21.112Z" transform="translate(1119.743 -226.687)" fill="#747474" stroke="#747474" stroke-width="2"/>
      <path id="Caminho_24" data-name="Caminho 24" d="M-669.512,365l-4.634,2.256-.7-1.436c-.172-.352-.155-.542.021-.7a16.076,16.076,0,0,1,1.794-1.236l-2.4-4.927-16.484,8.025a1.79,1.79,0,0,1,.112.381c.225.833.379,1.374.421,1.608s-.091.408-.385.551l-1.232.6-3.456-7.1,1.233-.6a.635.635,0,0,1,.829.213c.216.295.591.765,1.108,1.456l16.482-8.025-2.412-4.957a20.643,20.643,0,0,1-2.093.693c-.234.042-.408-.092-.579-.444l-.685-1.407,4.634-2.256,7.71,15.837.486,1Z" transform="translate(1122.078 -223.179)" fill="#747474" stroke="#747474" stroke-width="2"/>
      <path id="Caminho_25" data-name="Caminho 25" d="M-670.174,398.925a13.328,13.328,0,0,1-4.817.67,10.919,10.919,0,0,1-4.317-1.1,10.452,10.452,0,0,1-3.426-2.713,12.29,12.29,0,0,1-2.289-4.2,12.278,12.278,0,0,1-.548-4.754,10.561,10.561,0,0,1,1.229-4.221,10.909,10.909,0,0,1,2.9-3.382,13.517,13.517,0,0,1,4.346-2.266,13.489,13.489,0,0,1,4.859-.649,10.9,10.9,0,0,1,4.317,1.1,10.665,10.665,0,0,1,3.466,2.734,12.28,12.28,0,0,1,2.258,4.212,12.284,12.284,0,0,1,.579,4.744,10.609,10.609,0,0,1-1.229,4.222,10.923,10.923,0,0,1-2.9,3.381,13.516,13.516,0,0,1-4.356,2.236Zm-.985-3.11a11.978,11.978,0,0,0,3.524-1.732,8.109,8.109,0,0,0,2.275-2.432,7.043,7.043,0,0,0,.922-3.03,9.176,9.176,0,0,0-.453-3.483,8.856,8.856,0,0,0-1.615-3.047,7.05,7.05,0,0,0-2.5-1.946,8.218,8.218,0,0,0-3.28-.74,11.969,11.969,0,0,0-3.878.612,11.775,11.775,0,0,0-3.492,1.722,8.046,8.046,0,0,0-2.224,2.484,7.1,7.1,0,0,0-.954,3.039,9.018,9.018,0,0,0,.413,3.462,9.02,9.02,0,0,0,1.656,3.069,7.122,7.122,0,0,0,2.529,1.936,8.014,8.014,0,0,0,3.239.719,11.76,11.76,0,0,0,3.846-.6Z" transform="translate(1123.43 -219.613)" fill="#747474" stroke="#747474" stroke-width="2"/>
      <path id="Caminho_26" data-name="Caminho 26" d="M-666.9,437.921a5.6,5.6,0,0,1,2.356.444,7.34,7.34,0,0,1,1.981,1.269,5.956,5.956,0,0,1,1.339,1.867,5.646,5.646,0,0,1,.565,2.339,5.618,5.618,0,0,1-.478,2.356,6.631,6.631,0,0,1-1.269,1.981,6.454,6.454,0,0,1-1.9,1.34,5.608,5.608,0,0,1-2.338.565A5.612,5.612,0,0,1-669,449.6a6.107,6.107,0,0,1-1.948-1.269,7.064,7.064,0,0,1-1.307-1.9,5.581,5.581,0,0,1-.532-2.338,5.612,5.612,0,0,1,.445-2.357,6.7,6.7,0,0,1,1.269-1.947,6.585,6.585,0,0,1,1.9-1.307,5.6,5.6,0,0,1,2.338-.533Z" transform="translate(1125.029 -211.928)" fill="#747474" stroke="#747474" stroke-width="2"/>
      <path id="Caminho_27" data-name="Caminho 27" d="M-661.474,509.986l-5.457-1.433.4-1.515a.6.6,0,0,1,.711-.521c.094.025.939.145,2.487.417l2.221-8.453-7.507-1.973-2.188,8.327-2.4-.63,2.189-8.328-7.728-2.03-2.222,8.453c1.355.491,2.127.761,2.222.786.361.163.422.449.322.827l-.4,1.515-5.235-1.377,4.26-16.214,1.325.348a.577.577,0,0,1,.475.632l-.125,1.889,18.01,4.733q.683-1.441.851-1.7a.575.575,0,0,1,.724-.315l1.325.348Z" transform="translate(1123.623 -205.704)" fill="#747474" stroke="#747474" stroke-width="2"/>
      <path id="Caminho_28" data-name="Caminho 28" d="M-670.53,524.1a13.923,13.923,0,0,1-1.47-.545l-13.535-6.008c-.655.994-1.079,1.626-1.257,1.868a.518.518,0,0,1-.709.149l-1.311-.583,3.163-7.124,1.311.583a.571.571,0,0,1,.325.715l-.384,1.828,16.992,7.542c.6-.875.959-1.358,1.1-1.51a.571.571,0,0,1,.748-.24l1.311.583-1.905,4.293a1.7,1.7,0,0,1-.354.556.869.869,0,0,1-.559.217l-16.444,1.514a11.717,11.717,0,0,1-1.855,0,14.342,14.342,0,0,1,1.275,1.388l9.943,13.049a.911.911,0,0,1,.2.589,1.734,1.734,0,0,1-.175.635l-1.906,4.294-1.311-.583a.573.573,0,0,1-.325-.716l.4-1.857-16.991-7.542q-.9,1.311-1.112,1.541a.572.572,0,0,1-.748.238l-1.312-.583,3.176-7.154,1.311.583a.545.545,0,0,1,.338.685c-.073.325-.245,1.034-.529,2.156l13.5,5.993a12.63,12.63,0,0,1,1.374.682l-10.1-13.261a1.215,1.215,0,0,1-.236-1.317l.186-.418a1.3,1.3,0,0,1,1.161-.767l16.693-1.513Z" transform="translate(1121.956 -202.709)" fill="#747474" stroke="#747474" stroke-width="2"/>
      <path id="Caminho_29" data-name="Caminho 29" d="M-689.766,566.959c-2.638,2.134-5.423,2.222-8.318.333a6.623,6.623,0,0,1-3.211-4.745A9.489,9.489,0,0,1-699.511,556l1.819-2.785-5.324-3.476c-.161.127-.628.6-1.362,1.37a.55.55,0,0,1-.768.043l-1.146-.749,4.278-6.552,1.147.749a.575.575,0,0,1,.251.748l-.715,1.752,15.589,10.182q1.1-1.15,1.345-1.342a.576.576,0,0,1,.786-.072l1.147.749-4.815,7.372a13.446,13.446,0,0,1-2.514,2.955Zm-6.533-2.28a4.418,4.418,0,0,0,3.643.742,5.874,5.874,0,0,0,3.3-2.789l1.819-2.785-8.027-5.242-1.82,2.785a5.833,5.833,0,0,0-1.136,4.126,4.528,4.528,0,0,0,2.174,3.172Z" transform="translate(1120.851 -198.72)" fill="#747474" stroke="#747474" stroke-width="2"/>
      <path id="Caminho_30" data-name="Caminho 30" d="M-721.79,588.794a13.344,13.344,0,0,1-3.056-3.786,10.921,10.921,0,0,1-1.282-4.265,10.464,10.464,0,0,1,.562-4.333,12.3,12.3,0,0,1,2.424-4.126,12.338,12.338,0,0,1,3.794-2.917,10.61,10.61,0,0,1,4.252-1.119,10.944,10.944,0,0,1,4.392.743,13.514,13.514,0,0,1,4.18,2.56,13.514,13.514,0,0,1,3.058,3.831,10.924,10.924,0,0,1,1.282,4.265,10.655,10.655,0,0,1-.559,4.38,12.286,12.286,0,0,1-2.45,4.105,12.277,12.277,0,0,1-3.769,2.939,10.586,10.586,0,0,1-4.251,1.119,10.921,10.921,0,0,1-4.392-.743,13.529,13.529,0,0,1-4.159-2.583Zm2.159-2.446a11.95,11.95,0,0,0,3.3,2.129,8.077,8.077,0,0,0,3.256.7,7.037,7.037,0,0,0,3.072-.768,9.175,9.175,0,0,0,2.753-2.183,8.848,8.848,0,0,0,1.78-2.953,7.045,7.045,0,0,0,.382-3.142,8.247,8.247,0,0,0-1.054-3.194,11.964,11.964,0,0,0-2.522-3.008,11.768,11.768,0,0,0-3.275-2.108,8.084,8.084,0,0,0-3.274-.629,7.125,7.125,0,0,0-3.1.747,9.05,9.05,0,0,0-2.757,2.137,9.006,9.006,0,0,0-1.777,3,7.105,7.105,0,0,0-.358,3.165,8.014,8.014,0,0,0,1.05,3.147,11.745,11.745,0,0,0,2.5,2.988Z" transform="translate(1118.373 -195.679)" fill="#747474" stroke="#747474" stroke-width="2"/>
      <path id="Caminho_31" data-name="Caminho 31" d="M-747.727,605.383a10.788,10.788,0,0,1-.541-4.336,11.083,11.083,0,0,1,4.367-7.766l8.317-6.885.873,1.056a.6.6,0,0,1-.007.81L-735.9,589.7l11.877,14.347c.928-.515,1.463-.788,1.657-.864a.6.6,0,0,1,.8.145l.874,1.055-8.316,6.885a11.034,11.034,0,0,1-8.445,2.841,11.584,11.584,0,0,1-7.87-4.494A13.191,13.191,0,0,1-747.727,605.383Zm7.823,4.745a8.236,8.236,0,0,0,3.086,1.171,7.7,7.7,0,0,0,6.187-1.988l4.046-3.348-11.648-14.07-4.044,3.348a7.751,7.751,0,0,0-3.109,5.708,9.49,9.49,0,0,0,2.577,6.59A11.628,11.628,0,0,0-739.9,610.128Z" transform="translate(1115.612 -193.414)" fill="#747474" stroke="#747474" stroke-width="2"/>
      <path id="Caminho_32" data-name="Caminho 32" d="M-760.825,633.2l-2.939-4.816,1.336-.815a.6.6,0,0,1,.874.116c.051.083.576.757,1.5,2.024l7.46-4.553-4.043-6.625-7.349,4.485-1.291-2.117,7.349-4.484-4.162-6.821-7.46,4.554c.635,1.292,1,2.023,1.056,2.107.149.368-.007.615-.341.819l-1.336.815-2.821-4.62,14.308-8.733.713,1.169a.578.578,0,0,1-.095.785l-1.4,1.273,9.7,15.9q1.49-.565,1.79-.634a.574.574,0,0,1,.74.274l.714,1.169Z" transform="translate(1112.534 -191.153)" fill="#747474" stroke="#747474" stroke-width="2"/>
      <path id="Caminho_33" data-name="Caminho 33" d="M-796.877,626.583a.592.592,0,0,1-.682-.343l-.57-1.317.539-.234,1.616-.7.958-.414a1.3,1.3,0,0,1,1.409.136l8.884,5.251a2.27,2.27,0,0,0,.759.276,1.829,1.829,0,0,0,.975-.209l1.915-.829L-784,621.435s-1.567.323-1.832.367a.621.621,0,0,1-.712-.332l-.557-1.286,2.155-.934,2.9-1.256,2.155-.932.557,1.286a.593.593,0,0,1-.215.733c-.244.177-1.581,1.111-1.581,1.111l7.386,17.059s1.6-.335,1.891-.393a.594.594,0,0,1,.683.345l.57,1.317-2.155.932-5.776,2.5a14.662,14.662,0,0,1-3.713,1.111,7.1,7.1,0,0,1-2.973-.135,5.258,5.258,0,0,1-2.253-1.264,7.159,7.159,0,0,1-1.525-2.29,6.476,6.476,0,0,1-.548-2.252,6.564,6.564,0,0,1,.27-2.248,6.111,6.111,0,0,1,1.063-2.059,8.889,8.889,0,0,1,1.84-1.828,3.27,3.27,0,0,1-1.347-.483l-7.386-4.337c-.192.047-1.54.382-1.805.426Zm14.018,4.878a8.152,8.152,0,0,0-2.116,1.271,5.077,5.077,0,0,0-1.227,1.6,3.964,3.964,0,0,0-.418,1.744,4.584,4.584,0,0,0,.422,1.879,3.746,3.746,0,0,0,2.5,2.328,6.475,6.475,0,0,0,4.156-.662l2.9-1.256-3.5-8.081-2.753,1.192Z" transform="translate(1109.399 -189.591)" fill="#747474" stroke="#747474" stroke-width="2"/>
      <path id="Caminho_34" data-name="Caminho 34" d="M-827.01,634.464l-.33-1.263,6.5-1.693.328,1.262a.5.5,0,0,1-.309.62l-1.2.716,2.951,4.085,9.751-2.541.584-5-1.392-.043a.475.475,0,0,1-.542-.4l-.328-1.263,6.469-1.685.33,1.262a.5.5,0,0,1-.279.613l-1.164.707-2.879,22.588-3.093.805-13.5-18.322-1.361-.049A.5.5,0,0,1-827.01,634.464Zm9.374,5.713,5.613,7.839a14.281,14.281,0,0,1,1.246,1.934c.006-1.013.013-1.757.072-2.311l1.116-9.558Z" transform="translate(1105.757 -188.319)" fill="#747474" stroke="#747474" stroke-width="2"/>
      <path id="Caminho_35" data-name="Caminho 35" d="M-837.024,653.469a13.87,13.87,0,0,1-.225-1.553l-1.2-14.756c-1.185-.1-1.943-.17-2.242-.211a.518.518,0,0,1-.47-.55l-.117-1.431,7.769-.631.116,1.43a.572.572,0,0,1-.472.628l-1.789.539,1.507,18.526c1.056.111,1.652.193,1.852.243a.57.57,0,0,1,.567.542l.117,1.431-4.681.381a1.717,1.717,0,0,1-.658-.045.869.869,0,0,1-.457-.388l-9.2-13.715a11.6,11.6,0,0,1-.885-1.63,14.479,14.479,0,0,1-.607,1.784l-6.7,14.974a.908.908,0,0,1-.421.459,1.719,1.719,0,0,1-.642.151l-4.68.381-.117-1.431a.572.572,0,0,1,.472-.628l1.822-.541-1.507-18.526q-1.584-.167-1.885-.24a.572.572,0,0,1-.567-.544l-.117-1.43,7.8-.634.116,1.431a.544.544,0,0,1-.441.624c-.319.091-1.023.279-2.145.567l1.2,14.724a12.372,12.372,0,0,1,.059,1.533l6.813-15.211a1.218,1.218,0,0,1,1.044-.838l.455-.036a1.307,1.307,0,0,1,1.23.652L-837,653.433Z" transform="translate(1101.38 -187.436)" fill="#747474" stroke="#747474" stroke-width="2"/>
      <path id="Caminho_36" data-name="Caminho 36" d="M-888.721,658.152l.434-5.626,1.56.12a.6.6,0,0,1,.641.606c-.008.1.025.95.034,2.52l8.716.673.6-7.74-8.586-.661.191-2.472,8.586.661.613-7.967-8.715-.671c-.241,1.421-.368,2.228-.376,2.326-.1.386-.366.5-.756.466l-1.561-.12.416-5.4,16.716,1.288-.106,1.366a.575.575,0,0,1-.535.579l-1.882.216-1.431,18.569q1.539.413,1.824.533a.577.577,0,0,1,.44.656l-.1,1.367Z" transform="translate(1098.103 -187.37)" fill="#747474" stroke="#747474" stroke-width="2"/>
      <path id="Caminho_37" data-name="Caminho 37" d="M-913.274,634.987a12.439,12.439,0,0,1-.3,1.6l-3.142,13.8c1.2.474,1.828.785,2.012.859a.571.571,0,0,1,.378.689l-.318,1.4-2.608-.595-2.7-.614-2.321-.53.318-1.4a.573.573,0,0,1,.64-.457l1.9.032,4.656-20.448,1.559.355a1.328,1.328,0,0,1,.958.787l9.285,20.177a12.337,12.337,0,0,1,.27-1.477l3.172-13.929c-1.228-.48-1.892-.8-2.044-.867a.519.519,0,0,1-.315-.673l.311-1.368,7.568,1.723-.312,1.368a.544.544,0,0,1-.607.463l-1.9-.03-4.128,18.126q1.461.634,1.726.794a.575.575,0,0,1,.339.713l-.312,1.368-3.879-.884a1.527,1.527,0,0,1-.583-.233,2.463,2.463,0,0,1-.383-.522l-9.255-20.17Z" transform="translate(1093.919 -188.061)" fill="#747474" stroke="#747474" stroke-width="2"/>
      <path id="Caminho_38" data-name="Caminho 38" d="M-950.056,641.177l1.893-4.795,1.487.588c.364.143.48.295.457.53a16,16,0,0,1-.487,2.122l5.1,2.013,6.732-17.053a1.758,1.758,0,0,1-.34-.2c-.73-.462-1.21-.757-1.4-.9s-.208-.363-.088-.667l.5-1.274,7.342,2.9-.5,1.275a.635.635,0,0,1-.756.4c-.358-.071-.952-.165-1.8-.325l-6.732,17.053,5.128,2.023a20.839,20.839,0,0,1,1.076-1.925c.144-.188.362-.207.727-.063l1.456.576-1.893,4.793-16.385-6.469-1.031-.407Z" transform="translate(1090.455 -189.033)" fill="#747474" stroke="#747474" stroke-width="2"/>
      <path id="Caminho_39" data-name="Caminho 39" d="M-972.8,615.554a13.339,13.339,0,0,1,3.1-3.751,10.927,10.927,0,0,1,3.922-2.111,10.484,10.484,0,0,1,4.358-.317,12.315,12.315,0,0,1,4.528,1.549,12.3,12.3,0,0,1,3.617,3.132A10.579,10.579,0,0,1-951.334,618a10.919,10.919,0,0,1,.151,4.452,13.519,13.519,0,0,1-1.67,4.608,13.545,13.545,0,0,1-3.14,3.764,10.94,10.94,0,0,1-3.922,2.11,10.7,10.7,0,0,1-4.4.33,12.3,12.3,0,0,1-4.511-1.578,12.262,12.262,0,0,1-3.634-3.1,10.561,10.561,0,0,1-1.948-3.94,10.9,10.9,0,0,1-.152-4.452,13.517,13.517,0,0,1,1.7-4.591Zm2.829,1.626a11.959,11.959,0,0,0-1.425,3.658,8.117,8.117,0,0,0-.033,3.33,7.059,7.059,0,0,0,1.369,2.856,9.16,9.16,0,0,0,2.689,2.258,8.846,8.846,0,0,0,3.25,1.154,7.045,7.045,0,0,0,3.156-.255,8.23,8.23,0,0,0,2.918-1.672,11.94,11.94,0,0,0,2.443-3.073,11.783,11.783,0,0,0,1.409-3.629,8.09,8.09,0,0,0-.041-3.335,7.135,7.135,0,0,0-1.353-2.884,9.019,9.019,0,0,0-2.644-2.272,9,9,0,0,0-3.3-1.14,7.116,7.116,0,0,0-3.172.282,8.05,8.05,0,0,0-2.874,1.661A11.762,11.762,0,0,0-970,617.163Z" transform="translate(1087.379 -190.561)" fill="#747474" stroke="#747474" stroke-width="2"/>
      <path id="Caminho_40" data-name="Caminho 40" d="M-1003.137,588.409a5.625,5.625,0,0,1-2.037,1.267,7.327,7.327,0,0,1-2.317.406,5.918,5.918,0,0,1-2.25-.468,5.611,5.611,0,0,1-2-1.338,5.625,5.625,0,0,1-1.244-2.058,6.635,6.635,0,0,1-.407-2.317,6.468,6.468,0,0,1,.491-2.272,5.645,5.645,0,0,1,1.338-2,5.635,5.635,0,0,1,2.059-1.243,6.044,6.044,0,0,1,2.293-.385,7.016,7.016,0,0,1,2.248.514,5.581,5.581,0,0,1,1.975,1.361,5.6,5.6,0,0,1,1.268,2.037,6.649,6.649,0,0,1,.385,2.293,6.593,6.593,0,0,1-.514,2.248,5.609,5.609,0,0,1-1.361,1.975Z" transform="translate(1082.557 -194.462)" fill="#747474" stroke="#747474" stroke-width="2"/>
      <path id="Caminho_41" data-name="Caminho 41" d="M-1047.246,513.862a10.809,10.809,0,0,1,4.308.741,11.088,11.088,0,0,1,6.164,6.434L-1032.6,531l-1.263.529a.6.6,0,0,1-.774-.241l-1.037-1.546-17.179,7.2c.224,1.038.331,1.63.345,1.837a.6.6,0,0,1-.37.72l-1.263.531-4.175-9.959a11.03,11.03,0,0,1-.268-8.906,11.6,11.6,0,0,1,6.585-6.228A13.225,13.225,0,0,1-1047.246,513.862Zm-6.812,6.11a8.242,8.242,0,0,0-2.016,2.614,7.7,7.7,0,0,0,.107,6.5l2.031,4.844,16.847-7.063-2.031-4.844a7.746,7.746,0,0,0-4.559-4.632,9.492,9.492,0,0,0-7.054.552A11.626,11.626,0,0,0-1054.058,519.972Z" transform="translate(1076.821 -202.46)" fill="#747474" stroke="#747474" stroke-width="2"/>
      <path id="Caminho_42" data-name="Caminho 42" d="M-1065.057,502.653l17.932-5.027c-.093-1.058-.152-1.752-.16-2.021s.145-.448.46-.536l1.349-.378,2.122,7.569-1.351.378a.551.551,0,0,1-.72-.272l-.856-1.725-17.932,5.027q.14,1.587.151,1.991c.008.269-.146.447-.459.534l-1.319.37-2.122-7.568,1.319-.37a.577.577,0,0,1,.729.3Z" transform="translate(1075.753 -204.85)" fill="#747474" stroke="#747474" stroke-width="2"/>
      <path id="Caminho_43" data-name="Caminho 43" d="M-1073.305,473.2l5.57-.906.258,1.577a.577.577,0,0,1-.443.734c-.1.015-.912.28-2.437.66l1.487,9.144,8.081-1.314-1.424-8.758,2.511-.408,1.424,8.757,7.6-1.235c.023-.269.025-.864.061-1.861a.6.6,0,0,1,.528-.614l1.352-.219,1.267,7.791-1.353.22a.575.575,0,0,1-.689-.385l-.652-1.777-18.384,2.989c-.026,1.062-.054,1.694-.088,1.9a.575.575,0,0,1-.533.583l-1.352.22-.377-2.319Z" transform="translate(1075.087 -207.643)" fill="#747474" stroke="#747474" stroke-width="2"/>
      <path id="Caminho_44" data-name="Caminho 44" d="M-1074.889,446.021l5.64-.166.046,1.564a.6.6,0,0,1-.533.7c-.1,0-.944.125-2.5.3l.258,8.739,7.76-.229-.253-8.608,2.478-.072.254,8.607,7.989-.235-.258-8.738c-1.438-.089-2.256-.13-2.354-.127-.394-.054-.531-.31-.542-.7l-.046-1.566,5.412-.16.495,16.76-1.37.04a.577.577,0,0,1-.634-.47l-.414-1.849-18.618.549q-.248,1.574-.336,1.869a.576.576,0,0,1-.605.508l-1.37.04Z" transform="translate(1074.889 -211.004)" fill="#747474" stroke="#747474" stroke-width="2"/>
      <path id="Caminho_45" data-name="Caminho 45" d="M-1051.189,417.939a.6.6,0,0,1,.637-.424l1.427.154-.063.584-.189,1.752-.112,1.037a1.3,1.3,0,0,1-.814,1.16l-8.955,5.136a2.293,2.293,0,0,0-.614.525,1.832,1.832,0,0,0-.3.951l-.224,2.075,7.331.792s.493-1.522.585-1.775a.624.624,0,0,1,.64-.455l1.395.151-.252,2.335-.34,3.147-.252,2.335-1.395-.151a.593.593,0,0,1-.532-.549c-.033-.3-.186-1.923-.186-1.923l-18.489-2s-.495,1.554-.592,1.839a.592.592,0,0,1-.636.424l-1.427-.154.253-2.335.675-6.26a14.648,14.648,0,0,1,.867-3.778,7.088,7.088,0,0,1,1.585-2.52,5.266,5.266,0,0,1,2.211-1.336,7.133,7.133,0,0,1,2.745-.2,6.46,6.46,0,0,1,2.228.634,6.549,6.549,0,0,1,1.824,1.345,6.121,6.121,0,0,1,1.266,1.941,8.87,8.87,0,0,1,.682,2.5,3.264,3.264,0,0,1,1.085-.934l7.418-4.285c.054-.191.428-1.53.521-1.781Zm-11.164,9.787a8.064,8.064,0,0,0-.061-2.468,5.068,5.068,0,0,0-.785-1.857,3.964,3.964,0,0,0-1.311-1.224,4.552,4.552,0,0,0-1.842-.56,3.744,3.744,0,0,0-3.261,1.026,6.483,6.483,0,0,0-1.476,3.943l-.34,3.146,8.757.946.323-2.985Z" transform="translate(1074.932 -214.473)" fill="#747474" stroke="#747474" stroke-width="2"/>
      <path id="Caminho_46" data-name="Caminho 46" d="M-1066.172,388.5l5.472,1.378-.382,1.518a.6.6,0,0,1-.705.529c-.094-.024-.94-.136-2.49-.393l-2.135,8.477,7.528,1.9,2.1-8.35,2.4.605-2.1,8.35,7.749,1.951,2.135-8.477c-1.36-.477-2.135-.739-2.23-.763-.363-.159-.426-.444-.331-.823l.382-1.518,5.25,1.321-4.093,16.257-1.328-.334a.577.577,0,0,1-.481-.626l.106-1.891-18.06-4.546q-.667,1.446-.832,1.706a.576.576,0,0,1-.721.324l-1.328-.334Z" transform="translate(1075.466 -218.091)" fill="#747474" stroke="#747474" stroke-width="2"/>
      <path id="Caminho_47" data-name="Caminho 47" d="M-1038.737,368.177a12.552,12.552,0,0,1-1.529-.567l-13.072-5.437c-.669,1.1-1.083,1.669-1.188,1.838a.573.573,0,0,1-.743.256l-1.325-.551,1.028-2.47,1.064-2.56.914-2.2,1.326.551a.572.572,0,0,1,.342.707l-.353,1.867,19.366,8.055-.614,1.476a1.327,1.327,0,0,1-.938.811l-21.463,5.735a12.393,12.393,0,0,1,1.41.516l13.192,5.486c.681-1.129,1.108-1.729,1.2-1.867a.521.521,0,0,1,.718-.2l1.295.539-2.982,7.169-1.295-.539a.544.544,0,0,1-.354-.677l.352-1.867-17.167-7.141q-.872,1.333-1.075,1.566a.575.575,0,0,1-.76.214l-1.3-.538,1.53-3.674a1.528,1.528,0,0,1,.328-.535,2.43,2.43,0,0,1,.579-.289l21.45-5.7Z" transform="translate(1076.411 -222.083)" fill="#747474" stroke="#747474" stroke-width="2"/>
      <path id="Caminho_48" data-name="Caminho 48" d="M-1038.246,331.806l1.562.947,3.1,1.876-.828,1.367a.575.575,0,0,1-.812.271,13.326,13.326,0,0,1-1.339-.622c-.759-.384-1.223-.625-1.334-.693-3.875,3.371-5.266,6.8-4.319,10.271a9.492,9.492,0,0,0,4.51,5.518,9.639,9.639,0,0,0,7.018,1.508,7.464,7.464,0,0,0,5.055-3.684,9.192,9.192,0,0,0,1.255-2.825,8.724,8.724,0,0,0,.054-3.361.871.871,0,0,1,.064-.61.592.592,0,0,1,.4-.289l1.814-.35a10.29,10.29,0,0,1-1.029,8.491l.664.668a4.608,4.608,0,0,1,1.823-1.373,1.735,1.735,0,0,1,1.471.091,1.86,1.86,0,0,1,.812.8,2.613,2.613,0,0,1,.225,1.013,4.9,4.9,0,0,1-.817,2.48,5.9,5.9,0,0,1-1.68,1.765l-.617-.679a.384.384,0,0,1-.048-.487.587.587,0,0,1,.174-.161,2.825,2.825,0,0,1,.236-.2,2.931,2.931,0,0,0,.742-.846,1.46,1.46,0,0,0,.255-.989.741.741,0,0,0-.361-.6.8.8,0,0,0-.6-.137,1.64,1.64,0,0,0-.578.26,7.894,7.894,0,0,0-1.342,1.4l-1.342-1.5a10.351,10.351,0,0,1-6.372,4.222,12.306,12.306,0,0,1-8.951-1.841,11.867,11.867,0,0,1-5.672-7.252,11.6,11.6,0,0,1,1.652-9.142A21.882,21.882,0,0,1-1038.246,331.806Z" transform="translate(1078.567 -225.16)" fill="#747474" stroke="#747474" stroke-width="2"/>
      <path id="Caminho_49" data-name="Caminho 49" d="M-1001.6,317.974l1,.837-4.3,5.16-1-.835a.5.5,0,0,1-.109-.685l.556-1.278-4.778-1.6-6.453,7.742,2.438,4.411,1.157-.777a.476.476,0,0,1,.673.008l1,.836-4.282,5.136-1-.836a.5.5,0,0,1-.129-.659l.534-1.253-10.8-20.049,2.046-2.455,21.646,7.045,1.136-.752A.5.5,0,0,1-1001.6,317.974Zm-10.95.81-9.13-3.109a14.393,14.393,0,0,1-2.138-.848c.585.827,1.011,1.436,1.287,1.921l4.655,8.424Z" transform="translate(1080.848 -227.671)" fill="#747474" stroke="#747474" stroke-width="2"/>
      <path id="Caminho_50" data-name="Caminho 50" d="M-978.778,286.475a5.625,5.625,0,0,1-.9-2.227,7.339,7.339,0,0,1,0-2.353,5.963,5.963,0,0,1,.851-2.135,5.632,5.632,0,0,1,1.665-1.737,5.627,5.627,0,0,1,2.245-.867,6.617,6.617,0,0,1,2.353,0,6.5,6.5,0,0,1,2.153.878,5.62,5.62,0,0,1,1.736,1.666,5.636,5.636,0,0,1,.868,2.244,6.1,6.1,0,0,1-.019,2.326,7.061,7.061,0,0,1-.9,2.126,5.611,5.611,0,0,1-1.682,1.71,5.626,5.626,0,0,1-2.227.9,6.685,6.685,0,0,1-2.325-.019,6.6,6.6,0,0,1-2.127-.9,5.6,5.6,0,0,1-1.71-1.684Z" transform="translate(1086.75 -231.988)" fill="#747474" stroke="#747474" stroke-width="2"/>
    </g>
  </g>
</svg>
