<svg xmlns="http://www.w3.org/2000/svg" width="868.438" height="1036.828" viewBox="0 0 868.438 1036.828">
  <path id="Caminho_233" data-name="Caminho 233" d="M1340.02,319.71c-5.9,19.675-14.848,38.673-23.488,57.515-13.807,30.123-25.665,64.192-15.79,95.824,7.888,25.249,30.085,45.482,55.953,51,67.845,14.465,101.815-64.736,146.01-99.439,25.661-20.153,58.736-31.239,91.418-28.76,69.218,5.248,129.316,69.591,115.627,140.322-4.817,24.908-15.009,48.586-19.084,73.627s-.78,53.384,17.39,71.091c16.713,16.292,42.909,19.9,65.479,13.959,35.333-9.293,57.974-36.927,85.4-58.689,22.959-18.213,49.211-34.14,78.364-37.112,50.848-5.177,77.739,37.291,107.545,70.447,47.138,52.428,134.487,39.97,185.5-1.041,54.79-44.048,80.511-115.5,89.512-185.227,26.474-205.091-78.8-417.966-250.526-533.181s-400.524-133.853-594.178-61.32c-31.391,11.759-61.987,26.025-90.34,43.977-17.266,10.931-44.039,22.348-55.93,39.44-34.85,50.091-37.627,126.955-19.812,183.273,11.569,36.563,32.81,70.646,36.993,109.319C1348.136,283.862,1345.306,302.06,1340.02,319.71Z" transform="translate(159.237 2328.942) rotate(-90)" fill="none" stroke="#747474" stroke-miterlimit="10" stroke-width="10"/>
</svg>
